<svg enable-background="new 0 0 24 24" height="512" viewBox="0 0 24 24" width="512" xmlns="http://www.w3.org/2000/svg"><circle cx="12" cy="12" fill="#ffd54f" r="12"/><path d="m19.958 7.259c-.227-.029-5.33-.138-7.958 1.266-2.628-1.403-7.731-1.295-7.958-1.266-.338.041-.592.329-.592.669 0 1.898.873 5.487 4.175 5.487 2.215 0 3.612-1.403 4.375-2.778.764 1.375 2.16 2.778 4.375 2.778 3.302 0 4.175-3.589 4.175-5.487 0-.34-.254-.628-.592-.669z" fill="#455a64"/><path d="m12.25 21c-.414 0-.75-.336-.75-.75s.336-.75.75-.75c2.269 0 4.425-1.098 5.767-2.937.244-.334.712-.408 1.048-.164.334.244.408.713.164 1.048-1.624 2.225-4.232 3.553-6.979 3.553z"/><path d="m12 24c-6.617 0-12-5.383-12-12s5.383-12 12-12 12 5.383 12 12-5.383 12-12 12zm0-22.5c-5.79 0-10.5 4.71-10.5 10.5s4.71 10.5 10.5 10.5 10.5-4.71 10.5-10.5-4.71-10.5-10.5-10.5z"/><path d="m7.139 14.017c-3.669 0-4.639-3.988-4.639-6.097 0-.378.282-.698.658-.744.264-.034 6.51-.783 9.265 1.097.253.173.376.483.309.782-.381 1.716-2.041 4.962-5.593 4.962zm-3.097-5.425c.136 1.281.705 3.924 3.096 3.924 2.528 0 3.607-2.227 3.973-3.269-1.843-.871-5.224-.81-7.069-.655z"/><path d="m16.861 14.017c-3.552 0-5.212-3.246-5.593-4.962-.067-.299.056-.609.309-.782 2.755-1.879 9.001-1.13 9.265-1.097.376.046.658.365.658.743 0 2.109-.97 6.098-4.639 6.098zm-3.973-4.769c.366 1.042 1.445 3.269 3.973 3.269 2.391 0 2.96-2.643 3.096-3.924-1.845-.155-5.227-.215-7.069.655z"/></svg>